# Blender 3.6.5
# www.blender.org
mtllib vent.mtl
o Cube
v 1.128254 0.102850 -1.128254
v 1.128254 -0.122801 -1.128254
v 1.128254 0.102850 1.128254
v 1.128254 -0.122801 1.128254
v -1.128254 0.102850 -1.128254
v -1.128254 -0.122801 -1.128254
v -1.128254 0.102850 1.128254
v -1.128254 -0.122801 1.128254
v 0.000000 0.102850 1.128254
v 1.128254 0.102850 0.000000
v -1.128254 0.102850 0.000000
v 0.000000 0.102850 -1.128254
v 0.000000 0.100000 0.000000
v -0.564127 0.102850 1.128254
v 1.128254 0.102850 0.564127
v -1.128254 0.102850 -0.564127
v 0.564127 0.102850 -1.128254
v 0.564127 0.102850 1.128254
v 1.128254 0.102850 -0.564127
v -1.128254 0.102850 0.564127
v -0.564127 0.102850 -1.128254
v 0.000000 0.100000 0.500000
v 0.000000 0.100000 -0.500000
v 0.500000 0.100000 0.000000
v -0.500000 0.100000 0.000000
v -0.500000 0.100000 -0.500000
v 0.500000 0.100000 -0.500000
v 0.500000 0.100000 0.500000
v -0.500000 0.100000 0.500000
v -0.846191 0.102850 1.128254
v 1.128254 0.102850 0.846191
v -1.128254 0.102850 -0.846191
v 0.846191 0.102850 -1.128254
v 0.282064 0.102850 1.128254
v 1.128254 0.102850 -0.282064
v -1.128254 0.102850 0.282064
v -0.282064 0.102850 -1.128254
v 0.000000 0.100000 0.750000
v 0.000000 0.100000 -0.250000
v 0.750000 0.100000 0.000000
v -0.250000 0.100000 0.000000
v -0.282064 0.102850 1.128254
v 1.128254 0.102850 0.282064
v -1.128254 0.102850 -0.282064
v 0.282064 0.102850 -1.128254
v 0.846191 0.102850 1.128254
v 1.128254 0.102850 -0.846191
v -1.128254 0.102850 0.846191
v -0.846191 0.102850 -1.128254
v 0.000000 0.100000 0.250000
v 0.000000 0.100000 -0.750000
v 0.250000 0.100000 0.000000
v -0.750000 0.100000 0.000000
v -0.500000 0.100000 -0.250000
v -0.500000 0.100000 -0.750000
v -0.250000 0.100000 -0.500000
v -0.750000 0.100000 -0.500000
v 0.500000 0.100000 -0.250000
v 0.500000 0.100000 -0.750000
v 0.750000 0.100000 -0.500000
v 0.250000 0.100000 -0.500000
v 0.500000 0.100000 0.750000
v 0.500000 0.100000 0.250000
v 0.750000 0.100000 0.500000
v 0.250000 0.100000 0.500000
v -0.500000 0.100000 0.750000
v -0.500000 0.100000 0.250000
v -0.250000 0.100000 0.500000
v -0.750000 0.100000 0.500000
v -0.750000 0.100000 0.250000
v -0.250000 0.100000 0.250000
v -0.250000 0.100000 0.750000
v 0.250000 0.100000 0.250000
v 0.750000 0.100000 0.250000
v 0.750000 0.100000 0.750000
v 0.250000 0.100000 -0.750000
v 0.750000 0.100000 -0.750000
v 0.750000 0.100000 -0.250000
v -0.750000 0.100000 -0.750000
v -0.250000 0.100000 -0.750000
v -0.250000 0.100000 -0.250000
v -0.750000 0.100000 -0.250000
v 0.250000 0.100000 -0.250000
v 0.250000 0.100000 0.750000
v -0.750000 0.100000 0.750000
v 1.000000 0.066473 0.750000
v 1.000000 0.066473 1.000000
v 0.750000 0.066473 -1.000000
v 1.000000 0.066473 -1.000000
v 1.000000 0.066473 -0.250000
v 1.000000 0.066473 0.000000
v -0.250000 0.066473 -1.000000
v 0.000000 0.066473 -1.000000
v 0.000000 0.066473 0.750000
v 0.000000 0.066473 1.000000
v 0.000000 0.066473 -0.250000
v 0.000000 0.066473 0.000000
v 0.750000 0.066473 0.000000
v -0.250000 0.066473 0.000000
v 1.000000 0.066473 0.250000
v 1.000000 0.066473 0.500000
v 0.250000 0.066473 -1.000000
v 0.500000 0.066473 -1.000000
v 1.000000 0.066473 -0.750000
v 1.000000 0.066473 -0.500000
v -0.750000 0.066473 -1.000000
v -0.500000 0.066473 -1.000000
v 0.000000 0.066473 0.250000
v 0.000000 0.066473 0.500000
v 0.000000 0.066473 -0.750000
v 0.000000 0.066473 -0.500000
v 0.250000 0.066473 0.000000
v 0.500000 0.066473 0.000000
v -0.750000 0.066473 0.000000
v -0.500000 0.066473 0.000000
v -0.500000 0.066473 -0.250000
v -0.500000 0.066473 -0.750000
v -0.500000 0.066473 -0.500000
v -0.250000 0.066473 -0.500000
v -0.750000 0.066473 -0.500000
v 0.500000 0.066473 -0.250000
v 0.500000 0.066473 -0.750000
v 0.500000 0.066473 -0.500000
v 0.750000 0.066473 -0.500000
v 0.250000 0.066473 -0.500000
v 0.500000 0.066473 0.750000
v 0.500000 0.066473 1.000000
v 0.500000 0.066473 0.250000
v 0.500000 0.066473 0.500000
v 0.750000 0.066473 0.500000
v 0.250000 0.066473 0.500000
v -0.500000 0.066473 0.750000
v -0.500000 0.066473 1.000000
v -0.500000 0.066473 0.250000
v -0.500000 0.066473 0.500000
v -0.250000 0.066473 0.500000
v -0.750000 0.066473 0.500000
v -0.750000 0.066473 1.000000
v 0.250000 0.066473 1.000000
v -0.250000 0.066473 1.000000
v 0.750000 0.066473 1.000000
v -0.750000 0.066473 0.250000
v -0.250000 0.066473 0.250000
v -0.250000 0.066473 0.750000
v 0.250000 0.066473 0.250000
v 0.750000 0.066473 0.250000
v 0.750000 0.066473 0.750000
v 0.250000 0.066473 -0.750000
v 0.750000 0.066473 -0.750000
v 0.750000 0.066473 -0.250000
v -0.750000 0.066473 -0.750000
v -0.250000 0.066473 -0.750000
v -0.250000 0.066473 -0.250000
v -0.750000 0.066473 -0.250000
v 0.250000 0.066473 -0.250000
v 0.250000 0.066473 0.750000
v -0.750000 0.066473 0.750000
vn 0.0038 1.0000 -0.0038
vn -0.0000 -0.0000 1.0000
vn -1.0000 -0.0000 -0.0000
vn -0.0000 -1.0000 -0.0000
vn 1.0000 -0.0000 -0.0000
vn -0.0000 -0.0000 -1.0000
vn -0.0000 1.0000 -0.0075
vn -0.0000 1.0000 -0.0000
vn 0.0075 1.0000 -0.0000
vn -0.0000 0.9621 0.2729
vn -0.2729 0.9621 -0.0000
vn -0.0000 0.9621 -0.2729
vn -0.8028 -0.5910 0.0793
vn 0.6679 0.7376 -0.0989
vn -0.0000 1.0000 0.0075
vn -0.8028 -0.5910 -0.0793
vn 0.9374 0.3451 0.0463
vn 0.6679 0.7376 0.0989
vn 0.0038 1.0000 0.0038
vn -0.8028 0.5910 0.0793
vn 0.9374 -0.3451 -0.0463
vn 0.9374 0.3451 -0.0463
vn -0.8028 0.5910 -0.0793
vn 0.6679 -0.7376 -0.0989
vn 0.9374 -0.3451 0.0463
vn 0.6679 -0.7376 0.0989
vt 0.696630 0.064479
vt 0.649301 0.052450
vt 0.649301 0.017178
vt 0.684572 0.017178
vt 0.605526 0.615885
vt 0.333710 0.615885
vt 0.333710 0.580613
vt 0.333710 0.545341
vt 0.333710 0.510069
vt 0.333710 0.474797
vt 0.333710 0.439525
vt 0.333710 0.404253
vt 0.333710 0.368982
vt 0.333710 0.333710
vt 0.605526 0.333710
vt 0.614945 0.299353
vt 0.333710 0.299353
vt 0.333710 0.264081
vt 0.333710 0.228809
vt 0.333710 0.193538
vt 0.333710 0.158266
vt 0.333710 0.122994
vt 0.333710 0.087722
vt 0.333710 0.052450
vt 0.333710 0.017178
vt 0.614945 0.017178
vt 0.299353 0.299353
vt 0.017178 0.299353
vt 0.017178 0.017178
vt 0.299353 0.017178
vt 0.017178 0.615885
vt 0.017178 0.333710
vt 0.052450 0.333710
vt 0.087722 0.333710
vt 0.122994 0.333710
vt 0.158266 0.333710
vt 0.193538 0.333710
vt 0.228809 0.333710
vt 0.264081 0.333710
vt 0.299353 0.333710
vt 0.299353 0.615885
vt 0.911699 0.615885
vt 0.639883 0.615885
vt 0.639883 0.580613
vt 0.639883 0.545341
vt 0.639883 0.510069
vt 0.639883 0.474797
vt 0.639883 0.439525
vt 0.639883 0.404253
vt 0.639883 0.368982
vt 0.639883 0.333710
vt 0.911699 0.333710
vt 0.288007 0.697541
vt 0.256746 0.697541
vt 0.256717 0.650241
vt 0.291988 0.650241
vt 0.288007 0.822591
vt 0.256746 0.822591
vt 0.256746 0.791328
vt 0.288007 0.791328
vt 0.696630 0.189528
vt 0.649301 0.193538
vt 0.649301 0.158266
vt 0.696630 0.158266
vt 0.931646 0.189528
vt 0.900385 0.189528
vt 0.900385 0.158266
vt 0.931646 0.158266
vt 0.931646 0.252053
vt 0.900385 0.252053
vt 0.900385 0.220790
vt 0.931646 0.220790
vt 0.696630 0.252053
vt 0.649301 0.264081
vt 0.649301 0.228809
vt 0.696630 0.220790
vt 0.603553 0.822591
vt 0.572291 0.822591
vt 0.572291 0.791329
vt 0.603553 0.791329
vt 0.603553 0.885116
vt 0.572291 0.885116
vt 0.572291 0.853853
vt 0.603553 0.853853
vt 0.288007 0.885116
vt 0.256746 0.885116
vt 0.256746 0.853853
vt 0.288007 0.853853
vt 0.603553 0.697542
vt 0.572291 0.697542
vt 0.580281 0.650241
vt 0.615552 0.650241
vt 0.603553 0.760066
vt 0.572291 0.760066
vt 0.572291 0.728804
vt 0.603553 0.728804
vt 0.288007 0.760066
vt 0.256746 0.760066
vt 0.256746 0.728804
vt 0.288007 0.728804
vt 0.931646 0.064479
vt 0.900385 0.064479
vt 0.892337 0.017178
vt 0.927608 0.017178
vt 0.931646 0.127003
vt 0.900385 0.127003
vt 0.900385 0.095741
vt 0.931646 0.095741
vt 0.696630 0.127003
vt 0.649301 0.122994
vt 0.649301 0.087722
vt 0.696630 0.095741
vt 0.816194 0.127003
vt 0.816194 0.095741
vt 0.857981 0.095741
vt 0.857981 0.127003
vt 0.020742 0.885116
vt 0.020742 0.853853
vt 0.062668 0.853853
vt 0.062668 0.885116
vt 0.946056 0.333710
vt 0.981206 0.336638
vt 0.981206 0.384930
vt 0.950051 0.382335
vt 0.730986 0.264081
vt 0.730986 0.228809
vt 0.777632 0.220790
vt 0.777632 0.252053
vt 0.100588 0.791328
vt 0.100588 0.760066
vt 0.142514 0.760066
vt 0.142514 0.791328
vt 0.912379 0.835271
vt 0.947171 0.841069
vt 0.947171 0.889858
vt 0.916334 0.884719
vt 0.100588 0.728804
vt 0.142514 0.728804
vt 0.730986 0.193538
vt 0.777632 0.189528
vt 0.496149 0.697541
vt 0.493251 0.650241
vt 0.537935 0.666279
vt 0.537935 0.697541
vt 0.176871 0.932416
vt 0.180435 0.885116
vt 0.222360 0.885116
vt 0.222360 0.916378
vt 0.496149 0.760066
vt 0.496149 0.728804
vt 0.537935 0.728804
vt 0.537935 0.760066
vt 0.180435 0.853853
vt 0.222360 0.853853
vt 0.496149 0.853853
vt 0.496149 0.822591
vt 0.537935 0.822591
vt 0.537935 0.853853
vt 0.020742 0.728804
vt 0.020742 0.697541
vt 0.062668 0.697541
vt 0.062668 0.728804
vt 0.291988 0.932416
vt 0.256717 0.932416
vt 0.180435 0.728804
vt 0.180435 0.697541
vt 0.222360 0.697541
vt 0.222360 0.728804
vt 0.493251 0.932416
vt 0.496149 0.885116
vt 0.537935 0.885116
vt 0.537935 0.916378
vt 0.615552 0.932416
vt 0.580281 0.932416
vt 0.017178 0.650241
vt 0.062668 0.666279
vt 0.417108 0.791329
vt 0.417108 0.760066
vt 0.458894 0.760066
vt 0.458894 0.791329
vt 0.176871 0.650241
vt 0.222360 0.666279
vt 0.417108 0.697541
vt 0.413556 0.650241
vt 0.458894 0.666279
vt 0.458894 0.697541
vt 0.684572 0.299353
vt 0.649301 0.299353
vt 0.337274 0.853853
vt 0.337274 0.822591
vt 0.379199 0.822591
vt 0.379199 0.853853
vt 0.413556 0.932416
vt 0.417108 0.885116
vt 0.458894 0.885116
vt 0.458894 0.916378
vt 0.927608 0.299353
vt 0.892337 0.299353
vt 0.417108 0.822591
vt 0.458894 0.822591
vt 0.337274 0.791329
vt 0.379199 0.791329
vt 0.946056 0.504864
vt 0.981328 0.504864
vt 0.977318 0.552989
vt 0.946056 0.552989
vt 0.816194 0.220790
vt 0.816194 0.189528
vt 0.857981 0.189528
vt 0.857981 0.220790
vt 0.020742 0.791328
vt 0.020742 0.760066
vt 0.062668 0.760066
vt 0.062668 0.791328
vt 0.100588 0.697541
vt 0.142514 0.697541
vt 0.811988 0.299353
vt 0.816194 0.252053
vt 0.857981 0.252053
vt 0.857981 0.283315
vt 0.730986 0.158266
vt 0.730986 0.122994
vt 0.777632 0.127003
vt 0.777632 0.158266
vt 0.097024 0.650241
vt 0.142514 0.666279
vt 0.681169 0.744028
vt 0.649908 0.744028
vt 0.649908 0.712766
vt 0.681169 0.712766
vt 0.681169 0.775290
vt 0.649908 0.775290
vt 0.812405 0.744028
vt 0.781143 0.744028
vt 0.781143 0.712766
vt 0.812405 0.712766
vt 0.812405 0.775290
vt 0.781143 0.775290
vt 0.812405 0.681503
vt 0.781143 0.681503
vt 0.781143 0.650241
vt 0.812405 0.650241
vt 0.878022 0.744028
vt 0.846761 0.744028
vt 0.846761 0.712766
vt 0.878022 0.712766
vt 0.878022 0.775290
vt 0.846761 0.775290
vt 0.746787 0.744028
vt 0.715526 0.744028
vt 0.715526 0.712766
vt 0.746787 0.712766
vt 0.746787 0.775290
vt 0.715526 0.775290
vt 0.746787 0.681503
vt 0.715526 0.681503
vt 0.715526 0.650241
vt 0.746787 0.650241
vt 0.878022 0.869078
vt 0.846761 0.869078
vt 0.846761 0.837815
vt 0.878022 0.837815
vt 0.878022 0.900340
vt 0.846761 0.900340
vt 0.746787 0.869078
vt 0.715526 0.869078
vt 0.715526 0.837815
vt 0.746787 0.837815
vt 0.746787 0.900340
vt 0.715526 0.900340
vt 0.746787 0.806553
vt 0.715526 0.806553
vt 0.681169 0.869078
vt 0.649908 0.869078
vt 0.649908 0.837815
vt 0.681169 0.837815
vt 0.681169 0.900340
vt 0.649908 0.900340
vt 0.812405 0.869078
vt 0.781143 0.869078
vt 0.781143 0.837815
vt 0.812405 0.837815
vt 0.812405 0.900340
vt 0.781143 0.900340
vt 0.812405 0.806553
vt 0.781143 0.806553
vt 0.681169 0.806553
vt 0.649908 0.806553
vt 0.878022 0.806553
vt 0.846761 0.806553
vt 0.878022 0.681503
vt 0.846761 0.681503
vt 0.846761 0.650241
vt 0.878022 0.650241
vt 0.681169 0.681503
vt 0.649908 0.681503
vt 0.649908 0.650241
vt 0.681169 0.650241
vt 0.017178 0.932416
vt 0.062668 0.916378
vt 0.816194 0.064479
vt 0.811988 0.017178
vt 0.857981 0.033216
vt 0.857981 0.064479
vt 0.730986 0.087722
vt 0.730986 0.052450
vt 0.777632 0.064479
vt 0.777632 0.095741
vt 0.337274 0.760066
vt 0.337274 0.728804
vt 0.379199 0.728804
vt 0.379199 0.760066
vt 0.946056 0.422215
vt 0.981206 0.419287
vt 0.977210 0.467912
vt 0.946056 0.470507
vt 0.912379 0.930012
vt 0.947171 0.924214
vt 0.943216 0.973662
vt 0.912379 0.978801
vt 0.020742 0.822591
vt 0.062668 0.822591
vt 0.417108 0.853853
vt 0.458894 0.853853
vt 0.816194 0.158266
vt 0.857981 0.158266
vt 0.417108 0.728804
vt 0.458894 0.728804
vt 0.337274 0.697542
vt 0.333710 0.650241
vt 0.379199 0.666279
vt 0.379199 0.697542
vt 0.180435 0.822591
vt 0.180435 0.791328
vt 0.222360 0.791328
vt 0.222360 0.822591
vt 0.496149 0.791329
vt 0.537935 0.791329
vt 0.730986 0.299353
vt 0.777632 0.283315
vt 0.100588 0.885116
vt 0.100588 0.853853
vt 0.142514 0.853853
vt 0.142514 0.885116
vt 0.649908 0.934696
vt 0.685180 0.934696
vt 0.685180 0.982822
vt 0.653918 0.982822
vt 0.097024 0.932416
vt 0.142514 0.916378
vt 0.100588 0.822591
vt 0.142514 0.822591
vt 0.180435 0.760066
vt 0.222360 0.760066
vt 0.912379 0.650241
vt 0.946598 0.658794
vt 0.946598 0.708400
vt 0.916269 0.700819
vt 0.337274 0.885116
vt 0.379199 0.885116
vt 0.912379 0.751309
vt 0.946598 0.742756
vt 0.942708 0.793334
vt 0.912379 0.800915
vt 0.333710 0.932416
vt 0.379199 0.916378
vt 0.730986 0.017178
vt 0.777632 0.033216
s 0
usemtl Material
f 85/1/1 48/2/1 7/3/1 30/4/1
f 4/5/2 3/6/2 46/7/2 18/8/2 34/9/2 9/10/2 42/11/2 14/12/2 30/13/2 7/14/2 8/15/2
f 8/16/3 7/17/3 48/18/3 20/19/3 36/20/3 11/21/3 44/22/3 16/23/3 32/24/3 5/25/3 6/26/3
f 6/27/4 2/28/4 4/29/4 8/30/4
f 2/31/5 1/32/5 47/33/5 19/34/5 35/35/5 10/36/5 43/37/5 15/38/5 31/39/5 3/40/5 4/41/5
f 6/42/6 5/43/6 49/44/6 21/45/6 37/46/6 12/47/6 45/48/6 17/49/6 33/50/6 1/51/6 2/52/6
f 84/53/7 38/54/7 9/55/7 34/56/7
f 83/57/8 39/58/8 13/59/8 52/60/8
f 82/61/9 44/62/9 11/63/9 53/64/9
f 81/65/8 54/66/8 25/67/8 41/68/8
f 80/69/8 55/70/8 26/71/8 56/72/8
f 79/73/9 32/74/9 16/75/9 57/76/9
f 78/77/8 58/78/8 24/79/8 40/80/8
f 77/81/8 59/82/8 27/83/8 60/84/8
f 76/85/8 51/86/8 23/87/8 61/88/8
f 75/89/7 62/90/7 18/91/7 46/92/7
f 74/93/8 63/94/8 28/95/8 64/96/8
f 73/97/8 50/98/8 22/99/8 65/100/8
f 72/101/7 66/102/7 14/103/7 42/104/7
f 71/105/8 67/106/8 29/107/8 68/108/8
f 70/109/9 36/110/9 20/111/9 69/112/9
f 58/113/3 27/114/3 123/115/3 121/116/3
f 80/117/5 56/118/5 119/119/5 152/120/5
f 53/64/9 11/63/9 36/110/9 70/109/9
f 17/121/10 45/122/10 102/123/10 103/124/10
f 31/125/11 15/126/11 101/127/11 86/128/11
f 41/68/8 25/67/8 67/106/8 71/105/8
f 52/129/5 73/130/5 145/131/5 112/132/5
f 30/133/12 14/134/12 133/135/12 138/136/12
f 68/108/8 29/107/8 66/102/8 72/101/8
f 73/130/5 65/137/5 131/138/5 145/131/5
f 15/126/11 43/139/11 100/140/11 101/127/11
f 52/60/8 13/59/8 50/98/8 73/97/8
f 55/141/13 21/142/13 107/143/13 117/144/13
f 49/145/14 79/146/14 151/147/14 106/148/14
f 40/80/8 24/79/8 63/94/8 74/93/8
f 54/149/3 26/150/3 118/151/3 116/152/3
f 79/146/5 57/153/5 120/154/5 151/147/5
f 64/96/8 28/95/8 62/90/8 75/89/8
f 29/155/3 67/156/3 134/157/3 135/158/3
f 68/159/5 72/160/5 144/161/5 136/162/5
f 45/163/15 12/164/15 51/86/15 76/85/15
f 69/165/5 85/166/5 157/167/5 137/168/5
f 14/169/16 66/170/16 132/171/16 133/172/16
f 33/173/15 17/174/15 59/82/15 77/81/15
f 72/160/17 42/175/17 140/176/17 144/161/17
f 13/177/3 39/178/3 96/179/3 97/180/3
f 60/84/8 27/83/8 58/78/8 78/77/8
f 85/166/18 30/181/18 138/182/18 157/167/18
f 51/183/3 12/184/3 93/185/3 110/186/3
f 49/187/19 5/188/19 32/74/19 79/73/19
f 60/189/5 78/190/5 150/191/5 124/192/5
f 9/193/3 38/194/3 94/195/3 95/196/3
f 37/197/15 21/198/15 55/70/15 80/69/15
f 50/199/3 13/177/3 97/180/3 108/200/3
f 78/190/5 40/201/5 98/202/5 150/191/5
f 56/72/8 26/71/8 54/66/8 81/65/8
f 12/203/10 37/204/10 92/205/10 93/206/10
f 28/207/3 63/208/3 128/209/3 129/210/3
f 57/76/9 16/75/9 44/62/9 82/61/9
f 41/211/5 71/212/5 143/213/5 99/214/5
f 65/137/5 84/215/5 156/216/5 131/138/5
f 61/88/8 23/87/8 39/58/8 83/57/8
f 18/217/20 62/218/20 126/219/20 127/220/20
f 71/212/5 68/159/5 136/162/5 143/213/5
f 65/100/8 22/99/8 38/54/8 84/53/8
f 10/221/11 35/222/11 90/223/11 91/224/11
f 84/215/21 34/225/21 139/226/21 156/216/21
f 69/112/9 20/111/9 48/2/9 85/1/9
f 134/227/8 142/228/8 137/229/8 135/230/8
f 115/231/8 114/232/8 142/228/8 134/227/8
f 108/233/8 143/234/8 136/235/8 109/236/8
f 97/237/8 99/238/8 143/234/8 108/233/8
f 94/239/8 144/240/8 140/241/8 95/242/8
f 109/236/8 136/235/8 144/240/8 94/239/8
f 128/243/8 145/244/8 131/245/8 129/246/8
f 113/247/8 112/248/8 145/244/8 128/243/8
f 100/249/8 146/250/8 130/251/8 101/252/8
f 91/253/8 98/254/8 146/250/8 100/249/8
f 86/255/8 147/256/8 141/257/8 87/258/8
f 101/252/8 130/251/8 147/256/8 86/255/8
f 122/259/8 148/260/8 125/261/8 123/262/8
f 103/263/8 102/264/8 148/260/8 122/259/8
f 104/265/8 149/266/8 124/267/8 105/268/8
f 89/269/8 88/270/8 149/266/8 104/265/8
f 90/271/8 150/272/8 98/254/8 91/253/8
f 105/268/8 124/267/8 150/272/8 90/271/8
f 117/273/8 151/274/8 120/275/8 118/276/8
f 107/277/8 106/278/8 151/274/8 117/273/8
f 110/279/8 152/280/8 119/281/8 111/282/8
f 93/283/8 92/284/8 152/280/8 110/279/8
f 96/285/8 153/286/8 99/238/8 97/237/8
f 111/282/8 119/281/8 153/286/8 96/285/8
f 116/287/8 154/288/8 114/232/8 115/231/8
f 118/276/8 120/275/8 154/288/8 116/287/8
f 121/289/8 155/290/8 112/248/8 113/247/8
f 123/262/8 125/261/8 155/290/8 121/289/8
f 126/291/8 156/292/8 139/293/8 127/294/8
f 129/246/8 131/245/8 156/292/8 126/291/8
f 132/295/8 157/296/8 138/297/8 133/298/8
f 135/230/8 137/229/8 157/296/8 132/295/8
f 37/299/22 80/117/22 152/120/22 92/300/22
f 59/301/23 17/302/23 103/303/23 122/304/23
f 19/305/11 47/306/11 104/307/11 105/308/11
f 74/309/5 64/310/5 130/311/5 146/312/5
f 34/313/12 18/314/12 127/315/12 139/316/12
f 40/201/5 74/309/5 146/312/5 98/202/5
f 35/222/11 19/305/11 105/308/11 90/223/11
f 21/317/10 49/318/10 106/319/10 107/320/10
f 81/321/5 41/211/5 99/214/5 153/322/5
f 62/218/3 28/207/3 129/210/3 126/219/3
f 22/323/3 50/199/3 108/200/3 109/324/3
f 56/118/5 81/321/5 153/322/5 119/119/5
f 63/208/3 24/325/3 113/326/3 128/209/3
f 23/327/3 51/183/3 110/186/3 111/328/3
f 75/329/24 46/330/24 141/331/24 147/332/24
f 38/194/3 22/323/3 109/324/3 94/195/3
f 64/310/5 75/329/5 147/332/5 130/311/5
f 39/178/3 23/327/3 111/328/3 96/179/3
f 82/333/5 53/334/5 114/335/5 154/336/5
f 66/170/3 29/155/3 135/158/3 132/171/3
f 25/337/3 54/149/3 116/152/3 115/338/3
f 57/153/5 82/333/5 154/336/5 120/154/5
f 67/156/3 25/337/3 115/338/3 134/157/3
f 26/150/3 55/141/3 117/144/3 118/151/3
f 3/339/11 31/125/11 86/128/11 87/340/11
f 76/341/5 61/342/5 125/343/5 148/344/5
f 42/345/12 9/346/12 95/347/12 140/348/12
f 45/349/25 76/341/25 148/344/25 102/350/25
f 43/139/11 10/221/11 91/224/11 100/140/11
f 83/351/5 52/129/5 112/132/5 155/352/5
f 70/353/5 69/165/5 137/168/5 142/354/5
f 24/325/3 58/113/3 121/116/3 113/326/3
f 61/342/5 83/351/5 155/352/5 125/343/5
f 1/355/10 33/356/10 88/357/10 89/358/10
f 53/334/5 70/353/5 142/354/5 114/335/5
f 27/114/3 59/301/3 122/304/3 123/115/3
f 77/359/5 60/189/5 124/192/5 149/360/5
f 46/361/12 3/362/12 87/363/12 141/364/12
f 33/365/26 77/359/26 149/360/26 88/366/26
f 47/306/11 1/367/11 89/368/11 104/307/11
